# xmcd
#
# Track frame offsets: 
#        150
#        13020
#        38375
#        70164
#        86784
#        107656
#        122099
#        146098
#        179402
#        184651
#        206362
#        218106
#        277497
#        294450
#
# Disc length: 4351 seconds
#
# Revision: 0
# Processed by: cddbd v1.5.2PL0 Copyright (c) Steve Scherf et al.
# Submitted via: ExactAudioCopy v0.95a3
#
DISCID=d410fd0e
DTITLE=Peter Frampton - Instant Live Peter's Select Tracks from the 20
DTITLE=04 Summer Tour
DYEAR=2004
DGENRE=Rock
TTITLE0=Verge of a Thing
TTITLE1=Lying
TTITLE2=Lines on My Face
TTITLE3=I Need Ground
TTITLE4=Show Me the Way
TTITLE5=Not Forgotten
TTITLE6=Hour of Need
TTITLE7=(I'll Give You) Money
TTITLE8=Nassau
TTITLE9=Baby, I Love Your Way
TTITLE10=Key
TTITLE11=Do You Feel Like We Do
TTITLE12=Off the Hook
TTITLE13=While My Guitar Gently Weeps
EXTD=
EXTT0=
EXTT1=
EXTT2=
EXTT3=
EXTT4=
EXTT5=
EXTT6=
EXTT7=
EXTT8=
EXTT9=
EXTT10=
EXTT11=
EXTT12=
EXTT13=
PLAYORDER=
